# Blender v2.78 (sub 5) OBJ File: '128k.blend'
# www.blender.org
mtllib 128k.mtl
o 128_screen_Cube.002
v 0.647525 1.798803 -0.571494
v 0.647525 1.798803 0.571493
v 0.647525 0.997460 0.571493
v 0.647525 0.997460 -0.571494
vt 0.943514 0.504476
vt 0.940374 0.642125
vt 0.741621 0.639205
vt 0.744216 0.502366
vn 1.0000 0.0000 -0.0000
usemtl Material.006
s off
f 4/1/1 1/2/1 2/3/1 3/4/1
o 128_body_Cube.001
v 0.536326 0.000000 -0.756198
v 0.536326 0.000000 0.756198
v -0.774816 0.000000 -0.756198
v -0.774816 2.000000 -0.756198
v -0.774816 0.000000 0.756198
v -0.774816 2.000000 0.756198
v 0.647525 1.798803 -0.571494
v 0.647525 1.798803 0.571493
v -0.774816 1.870211 0.756198
v -0.774816 1.784105 -0.756198
v 0.647525 0.997460 0.571493
v -0.774816 0.812756 0.756198
v -0.774816 0.812756 -0.756198
v 0.647525 0.997460 -0.571494
v -0.774816 0.406378 0.756198
v -0.774816 0.406378 -0.756198
v 0.536326 0.269226 0.756198
v -0.774816 0.269226 0.756198
v -0.774816 0.269226 -0.756198
v 0.536326 0.269226 -0.756198
v 0.737579 0.956487 -0.612467
v 0.737579 1.839776 -0.612467
v 0.737580 1.839776 0.612466
v 0.737580 0.956487 0.612466
v 0.647525 0.966487 -0.602467
v 0.647525 1.829776 -0.602467
v 0.647525 1.829776 0.602466
v 0.647525 0.966487 0.602466
v 0.690842 2.000000 -0.756198
v 0.737579 1.949156 -0.705354
v 0.723890 1.985108 -0.741306
v 0.737580 1.949156 0.705354
v 0.691150 2.000000 0.756198
v 0.723981 1.985108 0.741306
v 0.737579 0.812756 -0.705354
v 0.690534 0.812756 -0.756198
v 0.723800 0.812756 -0.741306
v 0.737579 1.870211 -0.705354
v 0.690534 1.870211 -0.756198
v 0.723800 1.870211 -0.741306
v 0.691150 1.870211 0.756198
v 0.737580 1.870211 0.705354
v 0.723981 1.870211 0.741306
v 0.691150 0.812756 0.756198
v 0.737580 0.812756 0.705354
v 0.723981 0.812756 0.741306
v 0.737580 0.457222 0.705354
v 0.691150 0.377745 0.756198
v 0.723981 0.412884 0.741306
v 0.737579 0.457222 -0.705354
v 0.690534 0.374317 -0.756198
v 0.723800 0.411879 -0.741306
vt 0.966161 0.664142
vt 0.965896 0.478605
vt 0.984147 0.452269
vt 0.983260 0.669935
vt 0.368290 0.393839
vt 0.393840 0.393839
vt 0.393839 0.691563
vt 0.351339 0.691563
vt 0.983237 0.685837
vt 0.703818 0.685879
vt 0.703637 0.669932
vt 0.160124 0.691563
vt 0.368289 0.980024
vt 0.160124 0.980024
vt 0.718425 0.480465
vt 0.698858 0.451294
vt 0.719476 0.664824
vt 0.160125 0.393839
vt 0.682423 0.393840
vt 0.682362 0.691564
vt 0.080127 0.393839
vt 0.080127 0.691562
vt 0.393840 0.368290
vt 0.682423 0.368290
vt 0.984480 0.379614
vt 0.698111 0.378534
vt 0.053128 0.393839
vt 0.053127 0.691562
vt 0.393839 0.980085
vt 0.995001 0.321967
vt 0.994874 0.359849
vt 0.687860 0.359319
vt 0.687989 0.320939
vt 0.995184 0.267315
vt 0.688172 0.266287
vt 0.393840 0.160124
vt 0.393840 0.080126
vt 0.682424 0.074490
vt 0.682424 0.160124
vt 0.946055 0.648612
vt 0.950045 0.498698
vt 0.000129 0.393839
vt 0.000129 0.691562
vt 0.738528 0.495902
vt 0.735151 0.644935
vt 0.940374 0.642125
vt 0.943514 0.504476
vt 0.744216 0.502366
vt 0.741621 0.639205
vt 0.998553 0.669963
vt 0.998304 0.696265
vt 0.990980 0.693193
vt 0.991111 0.669933
vt 0.993311 0.700635
vt 0.693750 0.700635
vt 0.696698 0.693494
vt 0.990360 0.693456
vt 0.999519 0.452342
vt 0.992043 0.452309
vt 0.688904 0.696510
vt 0.688378 0.670173
vt 0.695762 0.670035
vt 0.696159 0.693342
vt 0.683534 0.451549
vt 0.690954 0.451428
vt 0.999871 0.362722
vt 0.992391 0.370371
vt 0.682682 0.362382
vt 0.690140 0.369514
vt 0.690847 0.369091
vt 0.991814 0.370022
vt 0.393840 0.053127
vt 0.651946 0.053127
vt 0.689064 0.000129
vt 0.996076 0.001157
vt 0.053127 0.949667
vt 0.000129 0.949667
vt 0.393840 0.000129
vt 0.651946 0.000129
vt 0.073815 0.980024
vn 1.0000 0.0000 0.0000
vn -1.0000 0.0000 0.0000
vn 0.0000 0.0000 -1.0000
vn 0.0000 1.0000 -0.0000
vn 0.0000 0.0000 1.0000
vn 0.5686 -0.8226 0.0008
vn 0.1104 0.0000 0.9939
vn 0.1104 0.0000 -0.9939
vn 0.1104 -0.9939 -0.0000
vn 0.1104 0.9939 -0.0000
vn 0.4096 -0.0007 -0.9123
vn 0.9341 -0.0004 -0.3571
vn 0.4120 0.9112 -0.0001
vn 0.4086 0.0000 -0.9127
vn 0.9338 0.0000 -0.3579
vn 0.4131 0.0000 0.9107
vn 0.9353 0.0000 0.3538
vn 0.9349 0.3548 -0.0000
vn 0.9564 -0.2920 0.0000
vn 0.0000 -1.0000 -0.0000
vn 0.7399 -0.6727 0.0008
usemtl Material.006
s off
f 26/5/2 25/6/2 39/7/2 42/8/2
f 13/9/3 10/10/3 8/11/3 14/12/3
f 42/8/2 34/13/2 36/14/2 46/15/2
f 17/16/4 14/12/4 43/17/4 40/18/4
f 25/6/2 28/19/2 49/20/2 39/7/2
f 28/19/2 27/21/2 46/15/2 49/20/2
f 16/22/3 13/9/3 14/12/3 17/16/3
f 8/11/5 10/10/5 37/23/5 33/24/5
f 19/25/3 16/22/3 17/16/3 20/26/3
f 10/10/6 13/27/6 45/28/6 37/23/6
f 54/29/2 39/7/2 49/20/2 51/30/2
f 27/21/2 26/5/2 42/8/2 46/15/2
f 22/31/3 19/25/3 20/26/3 23/32/3
f 14/12/4 8/11/4 33/33/4 43/17/4
f 24/34/7 55/35/7 52/36/7 21/37/7
f 5/38/2 24/34/2 21/37/2 6/39/2
f 16/40/6 19/41/6 52/42/6 48/43/6
f 30/44/8 29/45/8 25/6/8 26/5/8
f 9/46/3 22/31/3 23/32/3 7/47/3
f 32/48/9 31/49/9 27/21/9 28/19/9
f 31/49/10 30/44/10 26/5/10 27/21/10
f 11/50/2 18/51/2 29/45/2 30/44/2
f 29/45/11 32/48/11 28/19/11 25/6/11
f 15/52/2 12/53/2 31/49/2 32/48/2
f 12/53/2 11/50/2 30/44/2 31/49/2
f 43/54/12 33/55/12 35/56/12 44/57/12
f 44/57/13 35/56/13 34/13/13 42/8/13
f 18/51/2 15/52/2 32/48/2 29/45/2
f 33/58/14 37/59/14 38/60/14 35/61/14
f 40/62/15 43/54/15 44/57/15 41/63/15
f 41/63/16 44/57/16 42/8/16 39/7/16
f 37/64/17 45/65/17 47/66/17 38/67/17
f 38/67/18 47/66/18 46/15/18 36/14/18
f 45/65/17 48/68/17 50/69/17 47/66/17
f 47/66/18 50/69/18 49/20/18 46/15/18
f 55/70/15 40/62/15 41/63/15 56/71/15
f 56/71/16 41/63/16 39/7/16 54/29/16
f 48/68/17 52/72/17 53/73/17 50/69/17
f 50/69/18 53/73/18 51/30/18 49/20/18
f 35/61/19 38/60/19 36/14/19 34/13/19
f 54/29/20 51/30/20 53/74/20 56/75/20
f 19/41/6 22/76/6 21/77/6 52/42/6
f 9/78/21 7/79/21 5/38/21 6/39/21
f 7/47/4 23/32/4 24/80/4 5/81/4
f 13/27/6 16/40/6 48/43/6 45/28/6
f 22/76/6 9/82/6 6/83/6 21/77/6
f 23/32/4 20/26/4 55/84/4 24/80/4
f 56/75/22 53/74/22 52/36/22 55/35/22
f 20/26/4 17/16/4 40/18/4 55/84/4
